<svg id="Layer_1" data-name="Layer 1" xmlns="http://www.w3.org/2000/svg" xmlns:xlink="http://www.w3.org/1999/xlink" viewBox="0 0 264.02 63.67"><defs><style>.cls-1{fill:#ccc;}.cls-2{fill:#030303;}.cls-3{fill:url(#linear-gradient);}.cls-4{fill:url(#linear-gradient-2);}.cls-5{fill:url(#linear-gradient-3);}.cls-6{fill:url(#linear-gradient-4);}.cls-7{fill:url(#linear-gradient-5);}.cls-8{fill:url(#linear-gradient-6);}.cls-9{fill:url(#linear-gradient-7);}.cls-10{fill:url(#linear-gradient-8);}.cls-11{fill:url(#linear-gradient-9);}.cls-12{fill:#29282a;}.cls-13{opacity:0.5;}.cls-14{fill:#5a5558;}.cls-15{fill:#e0dbd6;}</style><linearGradient id="linear-gradient" x1="24.27" y1="33.37" x2="24.27" y2="63.95" gradientTransform="matrix(1, 0, 0, -1, 0, 66)" gradientUnits="userSpaceOnUse"><stop offset="0" stop-color="#d9cdca"/><stop offset="1" stop-color="#a89f9c"/></linearGradient><linearGradient id="linear-gradient-2" x1="51.8" y1="33.31" x2="51.8" y2="63.89" xlink:href="#linear-gradient"/><linearGradient id="linear-gradient-3" x1="75.02" y1="33.39" x2="75.02" y2="63.99" xlink:href="#linear-gradient"/><linearGradient id="linear-gradient-4" x1="105.9" y1="33.4" x2="105.9" y2="64.02" xlink:href="#linear-gradient"/><linearGradient id="linear-gradient-5" x1="248.74" y1="33.47" x2="248.74" y2="64.16" xlink:href="#linear-gradient"/><linearGradient id="linear-gradient-6" x1="221.74" y1="33.44" x2="221.74" y2="64.13" xlink:href="#linear-gradient"/><linearGradient id="linear-gradient-7" x1="194.16" y1="33.42" x2="194.16" y2="64.08" xlink:href="#linear-gradient"/><linearGradient id="linear-gradient-8" x1="165.01" y1="33.43" x2="165.01" y2="64.09" xlink:href="#linear-gradient"/><linearGradient id="linear-gradient-9" x1="135.41" y1="33.41" x2="135.41" y2="64.05" xlink:href="#linear-gradient"/></defs><path class="cls-1" d="M28.78,63.67V59.89H26.26v3.78H22.48V61.15H21.22V51.07H25v6.3h1.26V54.85h2.52v2.52H30v-6.3h3.79V61.15H32.56v2.52Z"/><path class="cls-1" d="M35.62,63.67V51.07H39.4v12.6Z"/><path class="cls-1" d="M43.72,63.67V53.59H41.2V51.07H50v2.52H47.5V63.67Z"/><path class="cls-1" d="M56.86,63.67v-5H55.6v5H51.82V51.07H55.6v5h1.26v-5h3.78v12.6Z"/><path class="cls-1" d="M71.08,63.67v-5H69.82v5H66V51.07h8.82v5H73.6v1.26h1.26v6.3Zm0-10.08H69.82v2.52h1.26Z"/><path class="cls-1" d="M79.18,63.67V53.59H76.66V51.07h8.82v2.52H83V63.67Z"/><path class="cls-1" d="M92.32,63.67V59.89H91.06v3.78H87.28v-6.3H89.8V56.11H87.28v-5h3.78v3.78h1.26V51.07H96.1v5H93.58v1.26H96.1v6.3Z"/><path class="cls-1" d="M108.7,63.67V51.07h8.82v2.52h-5v2.52h3.78v2.52h-3.78v5Z"/><path class="cls-1" d="M119.32,63.67V51.07h8.82v12.6Zm5-10.08H123.1v7.56h1.26Z"/><path class="cls-1" d="M135,63.67v-5h-1.26v5h-3.78V51.07h8.82v5H137.5v1.26h1.26v6.3Zm0-10.08h-1.26v2.52H135Z"/><path class="cls-1" d="M151.72,63.67V59.89H149.2v3.78h-3.78V61.15h-1.26V51.07h3.78v6.3h1.26V54.85h2.52v2.52H153v-6.3h3.78V61.15H155.5v2.52Z"/><path class="cls-1" d="M158.56,63.67V51.07h3.78v12.6Z"/><path class="cls-1" d="M170.44,63.67V61.15h-1.26V58.63h-1.26v5h-3.78V51.07h3.78v2.52h1.26v2.52h1.26v-5h3.78v12.6Z"/><path class="cls-1" d="M176,63.67V51.07h7.56v1.26h1.26V62.41h-1.26v1.26Zm5-10.08H179.8v7.56h1.26Z"/><path class="cls-1" d="M186.64,63.67V51.07h8.82v12.6Zm5-10.08h-1.26v7.56h1.26Z"/><path class="cls-1" d="M204.82,63.67V59.89H202.3v3.78h-3.78V61.15h-1.26V51.07H201v6.3h1.26V54.85h2.52v2.52h1.26v-6.3h3.78V61.15H208.6v2.52Z"/><path class="cls-1" d="M211.66,63.67V61.15h5V58.63h-5V51.07h8.82v2.52h-5v2.52h5v7.56Z"/><path class="cls-1" d="M228.4,63.67V54.85h-2.52V52.33h2.52V51.07h3.78v12.6Z"/><path class="cls-1" d="M234,63.67V51.07h8.82v12.6Zm5-10.08h-1.26v7.56H239Z"/><path class="cls-1" d="M99.38,51.45v3.22H99V51.45H98v-.34h2.44v.34Z"/><path class="cls-1" d="M103.75,54.67V52l-1,2.15h-.32l-1-2.15v2.71h-.38v-3.6h.38l1.16,2.53,1.13-2.53h.38v3.56Z"/><polygon class="cls-2" points="11.34 43.87 0 33.38 10.67 0.25 23.15 0.23 29.19 8.49 29.86 5.98 33.33 5.97 34.82 0.22 47.65 0.21 48.41 1.54 48.71 0.21 61.64 0.2 62.33 1.61 62.6 0.2 75.66 0.18 77.98 6.01 78.27 6.04 78.87 7.57 79.92 0.18 93.16 0.17 93.65 1.88 93.83 0.17 121.28 0.14 122.62 12.59 122.34 19.89 121.73 19.89 122.19 23.73 121.89 31.53 121.17 31.53 121.73 35.67 121.42 43.85 94.19 43.86 93.61 42.27 93.45 43.86 80.36 43.86 77.03 36.93 76.03 43.86 63.11 43.86 62.3 42.57 62.07 43.86 49.27 43.86 48.38 42.67 48.12 43.86 35.43 43.87 29.93 37.55 26.62 37.55 25.66 36.48 23.7 43.87 11.34 43.87"/><path class="cls-2" d="M163.5,41.91l-.42,1.94H149.61l-1.05-31.28L149.69.11h27.54l.18,1.78.48-1.78h27.27l.25,1.48.67-1.48h27l.32,1.3.82-1.3h26.87L263.59,8l-5.33,6.41.06.2q.56,1.89,1.14,3.81l1.77,5.77,1,3.11c.26.84.51,1.7.77,2.55s.5,1.72.74,2.57l.28,1L253.44,43.84H240.76l-5-20.45-5.84,8.1h-4.14l.36,1.7-7.47,10.65H205.72l-.22-1.35-.78,1.35h-13l-.2-1.48-.68,1.48H177.66l-.17-1.66-.56,1.66h-13.3Z"/><polygon class="cls-2" points="120.52 32.98 121.66 0.14 149.34 0.11 149.56 7.68 148.64 19.88 135.68 19.89 135.54 24.41 150.05 24.4 150.31 32.95 149.26 43.85 121.81 43.85 120.52 32.98"/><polygon class="cls-3" points="23.72 7.75 21.99 13.77 29.65 13.77 31.26 7.82 34.76 7.82 36.24 2.06 46.33 2.05 39.22 32.62 28.34 32.62 31.6 19.64 27.68 19.64 25.98 25.96 18.94 25.96 20.69 19.63 16.71 19.64 12.88 32.63 2.2 32.63 12.01 2.08 21.91 2.08 20.27 7.62 23.72 7.75"/><polygon class="cls-4" points="60.24 2.11 54.23 32.69 43.35 32.69 50.15 2.12 60.24 2.11"/><polygon class="cls-5" points="74.95 22.77 75.85 16.45 71.91 16.38 69.31 32.61 58.42 32.61 64.12 2.03 74.22 2.02 73.33 7.69 76.79 7.77 75.97 13.69 79.86 13.74 81.52 2.02 91.62 2.01 88.08 32.6 77.18 32.61 78.54 22.86 74.95 22.77"/><polygon class="cls-6" points="118.5 26.3 118.22 32.59 92.25 32.6 95.48 2 119.56 1.98 119.33 7.4 105.16 7.41 104.71 13.65 119.05 13.69 118.79 19.6 104.19 19.61 103.69 26.24 118.5 26.3"/><path class="cls-7" d="M259.78,1.84l1.73,5.43h-7v.17c.29,1.18.61,2.39.94,3.62s.7,2.5,1.07,3.78.77,2.57,1.16,3.87l1.21,3.94c.24.8.49,1.6.73,2.41l.76,2.47c.25.83.5,1.67.74,2.5l.73,2.5h-11L244,7.29h-7l-1.38-5.43Z"/><polygon class="cls-8" points="234.51 13.46 236.01 19.53 221.32 19.54 224.04 32.56 213.09 32.56 207.47 1.89 231.67 1.87 233.01 7.3 218.76 7.31 220.05 13.45 234.51 13.46"/><path class="cls-9" d="M192.41,22.67l1.35,9.9H182.82L179.43,1.92h24.16l5.31,30.66H198l-1.43-9.89Zm7.1-12-.62-3.9h-4.78l.44,3.56h-3.76l-.48-3.54h-4.63l.48,3.89h4.25l.2,1.44h-2.14l.78,6h2.57l-.19-2h3.8l.32,2.05h2.6l-.92-6h-2.11l-.19-1.45h4.38"/><path class="cls-10" d="M173.43,16.7H177l1.6,15.87H167.7l-1-12.92-4-.1.84,13H152.59L151.41,2h24.14l1.15,11.37h-3.6Zm-7.14-3-.47-6.3h-3.93l.41,6.3h4"/><polygon class="cls-11" points="133.7 7.38 147.7 7.37 147.54 1.95 123.43 1.98 122.4 32.59 148.41 32.58 148.24 26.29 133.36 26.3 133.7 7.38"/><path class="cls-12" d="M3.7,32.63c-.82,0-1,.47-.42,1L10.92,41a4.29,4.29,0,0,0,2.58,1h6.67c.82,0,1-.49.47-1.09L13.9,33.72a4,4,0,0,0-2.52-1.09Z"/><path class="cls-12" d="M29.84,32.62c-.82,0-1.06.52-.53,1.15l5.95,7.1A3.63,3.63,0,0,0,37.71,42h7c.82,0,1.09-.54.6-1.2l-5.21-7a3.37,3.37,0,0,0-2.39-1.2Z"/><path class="cls-12" d="M20.43,26c-.82,0-1.05.51-.5,1.12l6.63,7.49a3.22,3.22,0,0,0,2.16,1.06c.64,0,.78-.6.3-1.28l-.39-.55a3.63,3.63,0,0,1-.46-2.67l.09-.33a3.34,3.34,0,0,0-.53-2.62l-.82-1A3.5,3.5,0,0,0,24.48,26Z"/><path class="cls-12" d="M44.85,32.69c-.82,0-1.1.55-.61,1.21l5.09,6.91A3.32,3.32,0,0,0,51.71,42H58.6c.83,0,1.14-.57.7-1.27L55,34a3,3,0,0,0-2.3-1.27Z"/><path class="cls-12" d="M59.92,32.61c-.83,0-1.15.58-.72,1.28l4.12,6.74a3,3,0,0,0,2.27,1.28h6.79a.86.86,0,0,0,1-.72.88.88,0,0,0-.15-.63L70,34a2.64,2.64,0,0,0-2.16-1.34Z"/><path class="cls-12" d="M78.68,32.61a.88.88,0,0,0-1,.7.9.9,0,0,0,.16.69l3.1,6.7A2.55,2.55,0,0,0,83,42h7a1,1,0,0,0,1.09-.91,1.08,1.08,0,0,0-.09-.5L88.6,34a2.32,2.32,0,0,0-2-1.41Z"/><path class="cls-12" d="M93.74,32.6a1,1,0,0,0-1.09.91,1.08,1.08,0,0,0,.09.5L95,40.39a2.3,2.3,0,0,0,2,1.41h21a1.27,1.27,0,0,0,1.31-1.23,2.11,2.11,0,0,0,0-.25l-.89-6.25a1.76,1.76,0,0,0-1.7-1.48Z"/><path class="cls-12" d="M123.9,32.59a1.32,1.32,0,0,0-1.35,1.29,1.34,1.34,0,0,0,0,.2l.69,6.45A1.72,1.72,0,0,0,124.91,42H145.8a1.72,1.72,0,0,0,1.67-1.49l.77-6.46a1.31,1.31,0,0,0-1.12-1.48h-.2Z"/><path class="cls-12" d="M154.08,32.58a1.74,1.74,0,0,0-1.68,1.49l-.81,6.35a1.31,1.31,0,0,0,1.1,1.48h7.11a2,2,0,0,0,1.84-1.46L163.17,34a1.12,1.12,0,0,0-.77-1.38,1.09,1.09,0,0,0-.4,0Z"/><path class="cls-12" d="M169.2,32.58A2,2,0,0,0,167.36,34l-1.5,6.31a1.15,1.15,0,0,0,.73,1.44,1.13,1.13,0,0,0,.41,0h6.9a2.27,2.27,0,0,0,2-1.42l2.24-6.4a1,1,0,0,0-.5-1.32.86.86,0,0,0-.5-.09Z"/><path class="cls-12" d="M184.31,32.57a2.27,2.27,0,0,0-2,1.41L180,40.5a1,1,0,0,0,.5,1.32.86.86,0,0,0,.5.09h6.89A2.56,2.56,0,0,0,190,40.55l3.1-6.63a.89.89,0,0,0-.26-1.22.9.9,0,0,0-.6-.13Z"/><path class="cls-12" d="M199.44,32.57a2.62,2.62,0,0,0-2.15,1.34l-3.24,6.65a.87.87,0,0,0,.23,1.21.88.88,0,0,0,.61.14H202a2.88,2.88,0,0,0,2.24-1.3l3.9-6.75c.41-.71.07-1.3-.75-1.3Z"/><path class="cls-12" d="M214.58,32.56a3,3,0,0,0-2.27,1.28l-4.14,6.79c-.43.7-.1,1.28.72,1.28h7a3.28,3.28,0,0,0,2.37-1.22l4.92-6.91c.47-.67.19-1.22-.63-1.22Z"/><path class="cls-12" d="M252.38,32.55a3.78,3.78,0,0,0-2.49,1.12l-6.18,7c-.55.61-.32,1.12.5,1.12h6.67a4.26,4.26,0,0,0,2.57-1l7.34-7.16c.59-.58.4-1.05-.42-1.05Z"/><polygon class="cls-2" points="10.07 7.53 20.4 7.57 20.44 6.81 10.34 6.81 10.07 7.53"/><polygon class="cls-2" points="10.13 21.36 5.45 21.36 5.45 22.02 9.21 22.02 6.65 29.8 15.11 29.8 15.11 29.13 7.57 29.13 8.6 26.02 15.78 26.02 15.78 25.36 8.81 25.36 10.13 21.36"/><polygon class="cls-2" points="39.71 7.06 34.69 7.07 34.43 7.73 38.95 7.73 38.26 12.8 28.55 12.8 28.55 13.47 38.17 13.47 38.55 13.47 44.88 13.47 44.88 12.8 38.93 12.8 39.71 7.06"/><polygon class="cls-2" points="49.18 27.48 48.27 28.94 47.53 32.88 49.49 35.76 51.02 36.9 48.23 32.72 49.18 27.48"/><polygon class="cls-2" points="59.65 7.92 53.99 8.03 55.44 8.58 59.65 8.58 59.65 7.92"/><polygon class="cls-2" points="64.1 29.11 63.11 30.61 62.64 32.6 63.56 35.03 64.6 36.35 63.34 32.55 64.1 29.11"/><polygon class="cls-2" points="59.67 22.69 59.64 23.36 70.46 23.9 71.37 25.32 71.93 24.95 70.84 23.26 59.67 22.69"/><polygon class="cls-2" points="70.1 7.57 73.56 7.57 73.56 6.91 68.98 6.81 70.1 7.57"/><polygon class="cls-2" points="77.64 23.02 77.66 23.69 85.15 23.37 83.75 32.6 84.77 36.01 85.97 37.69 84.43 32.55 85.93 22.67 77.64 23.02"/><path class="cls-2" d="M80.59,7.36A107.49,107.49,0,0,0,91.31,8.7V8C88.6,8,80.78,6.71,80.7,6.7Z"/><polygon class="cls-2" points="97.88 25.69 92.2 25.69 92.2 26.36 97.19 26.36 96.98 32.5 98.21 37.33 99.13 38.98 97.64 32.43 97.88 25.69"/><polygon class="cls-2" points="93.87 11.25 99.42 11.25 100.86 10.47 93.87 10.58 93.87 11.25"/><polygon class="cls-2" points="112.2 12.91 111.53 12.91 111.53 19.02 112.31 17.36 112.2 12.91"/><polygon class="cls-2" points="115.43 27.91 110.42 27.91 110.42 32.91 111.08 32.91 111.08 28.58 116.07 28.58 116.19 25.04 115.53 25.01 115.43 27.91"/><polygon class="cls-2" points="142.52 28.5 142.97 32.68 141.64 42.31 142.45 42.27 143.63 32.69 143.08 27.44 142.52 28.5"/><rect class="cls-2" x="122.75" y="38.13" width="3.22" height="0.67"/><path class="cls-2" d="M126,12.14A24.35,24.35,0,0,1,134.2,14l.26-.61a37.59,37.59,0,0,0-9.79-1.92Z"/><polygon class="cls-2" points="125.75 17.58 122.64 17.69 122.64 18.36 124.64 18.36 125.75 17.58"/><path class="cls-2" d="M156.33,12.92h3.48a1.11,1.11,0,0,1,.64.5l.58-.34a1.75,1.75,0,0,0-1.11-.82h-3l-1.19-10.7-.66.07,1,9.07H151v.67h5.2Z"/><path class="cls-2" d="M155.39,29.21c-1,.44-1.49,2.59-1.64,3.3l.65.14c.29-1.35.91-2.85,1.34-2.85h.36l-.45-6.44h8.2v-.67h-8.91Z"/><polygon class="cls-2" points="166.52 25.36 172.96 25.36 174.18 24.69 166.52 24.69 166.52 25.36"/><polygon class="cls-2" points="169.96 15.91 173.85 15.91 173.85 15.25 169.24 15.32 169.96 15.91"/><rect class="cls-2" x="156.34" y="34.01" width="0.67" height="10.8" transform="translate(106.06 192.83) rotate(-85.86)"/><path class="cls-2" d="M196.17,24.8v.67c.09,0,9.09-.1,12.54,1.2L209,26C205.38,24.71,196.54,24.8,196.17,24.8Z"/><path class="cls-2" d="M227.52,12.58c1.59,4.57.36,7.16.35,7.19l.59.29c.06-.11,1.38-2.84-.31-7.7Z"/><polygon class="cls-2" points="221.41 4.14 220.6 1.49 219.96 1.68 220.92 4.81 223.48 4.81 224.74 8.47 225.37 8.25 223.96 4.14 221.41 4.14"/><rect class="cls-2" x="247.61" y="23.47" width="12" height="0.67"/><polygon class="cls-2" points="256.26 7.72 254.59 1.61 253.95 1.78 255.61 7.89 256.26 7.72"/><path class="cls-2" d="M34.27,7.61h2.92c.82,0,.84-.13,0-.29l-.9-.17c-.8-.16-1.43,0-1.38.29Z"/><path class="cls-2" d="M17.55,37.19a2.72,2.72,0,0,0-2-.43L13.93,37c-.82.1-.82.26,0,.36l2.69.31C17.44,37.72,17.86,37.52,17.55,37.19Z"/><path class="cls-2" d="M45.82,40.85a2.35,2.35,0,0,0-1.88-.48l-3.57.3c-.82.07-.82.19,0,.26l4.35.4C45.54,41.4,46,41.19,45.82,40.85Z"/><path class="cls-2" d="M80,39.46c-.09-.3.51-.53,1.33-.51h.78c.83,0,.85.23.06.46l-.57.16C80.85,39.83,80.13,39.77,80,39.46Z"/><path class="cls-2" d="M119.19,37.3c-.06-.46-.77-.74-1.59-.62l-2.48.35c-.81.12-.81.32,0,.44l2.7.43C118.64,38,119.25,37.76,119.19,37.3Z"/><path class="cls-2" d="M122.47,38.89c0-.46.58-.76,1.39-.67s.85.46.1.82h-.07C123.15,39.43,122.51,39.34,122.47,38.89Z"/><path class="cls-2" d="M97.7,31.24c-.09-.67-.27-.72-.39-.11a6.46,6.46,0,0,0,.21,2.55l.14.46c.23.79.38.76.32-.06V34C97.92,33.14,97.79,31.92,97.7,31.24Z"/><path class="cls-2" d="M110.7,31.74c-.16-.27-.26.18-.23,1V33c0,.82.15,1,.27.38A3,3,0,0,0,110.7,31.74Z"/><path class="cls-2" d="M84.37,31.47c0-.68-.16-.68-.28,0a6.37,6.37,0,0,0,.25,2.64l.17.49c.26.78.36.76.22-.06l-.06-.38C84.54,33.35,84.4,32.14,84.37,31.47Z"/><path class="cls-2" d="M63.21,32c-.12-.28-.32-.23-.45.11A1.91,1.91,0,0,0,63,33.47c.28.42.48.37.45-.12A5.17,5.17,0,0,0,63.21,32Z"/><path class="cls-2" d="M48.44,31.49c-.16-.67-.43-.59-.62.17a2.85,2.85,0,0,0,.67,2.39c.55.55.82.47.61-.17S48.59,32.17,48.44,31.49Z"/><path class="cls-2" d="M21.83,30.52c-.21-.27.28-.44,1.1-.37l2.13.19c.82.07.82.21,0,.32l-1.36.17A2.51,2.51,0,0,1,21.83,30.52Z"/><path class="cls-2" d="M143,31.06c.11-.82.35-.82.52,0v.18a7.5,7.5,0,0,1-.07,2.91l-.23.89c-.21.79-.41.77-.43,0V34.2a20,20,0,0,1,.17-3Z"/><path class="cls-2" d="M134.08,13.86c0,.34-.56.23-1.24-.23l-.3-.21c-.68-.46-.61-.69.15-.5S134.08,13.52,134.08,13.86Z"/><path class="cls-2" d="M177.46,36.46c.09-.3-.51-.53-1.33-.51h-.9c-.82,0-.85.22,0,.45l.67.18C176.64,36.84,177.37,36.77,177.46,36.46Z"/><path class="cls-2" d="M171.9,31.74c-.21-.46-.36-.16-.33.67h0c0,.83.2,1.2.39.83A2,2,0,0,0,171.9,31.74Z"/><path class="cls-2" d="M191.62,37.85c.12-.33-.45-.55-1.27-.49l-2.57.21c-.82.06-.83.22,0,.34l2.15.33C190.73,38.36,191.5,38.19,191.62,37.85Z"/><path class="cls-2" d="M188.84,31.91c-.12-.37-.29-.39-.39-.05a4.63,4.63,0,0,0,.06,1.66c.12.58.3.61.39.06A4.27,4.27,0,0,0,188.84,31.91Z"/><path class="cls-2" d="M228.22,20.08c-.27-.09-.25-.74.06-1.44s.53-.63.5.16S228.5,20.17,228.22,20.08Z"/><path class="cls-2" d="M209.56,37.08a2.42,2.42,0,0,1,2-.39l3.7.55c.82.12.81.24,0,.27l-4.68.13C209.73,37.67,209.28,37.41,209.56,37.08Z"/><path class="cls-2" d="M246,37.08a2.27,2.27,0,0,1,2.08-.55l3.4.65c.81.16.8.32,0,.37l-4.56.27C246.06,37.87,245.66,37.53,246,37.08Z"/><path class="cls-2" d="M247.44,23.75c-.15-.52.39-.85,1.2-.73l3,.45c.81.12.82.34,0,.49l-2.5.46C248.38,24.57,247.59,24.26,247.44,23.75Z"/><g class="cls-13"><path class="cls-2" d="M243.72,8.3a3.36,3.36,0,0,1-.5-1.88h0c0-.82.11-.84.33,0l.23.89C244,8,244,8.52,243.72,8.3Z"/></g><path class="cls-2" d="M208.39,26.91l-1.94-.77c-.77-.31-.72-.5.1-.42l2.06.19"/><g class="cls-13"><path class="cls-2" d="M132.13,33.35a2.4,2.4,0,0,0,0-1.5c-.15-.39-.95-.72-1.77-.72h-.67a2.57,2.57,0,0,0-2,.84c-.27.45.15,1,.94,1.24l1.79.51C131.21,34,132,33.78,132.13,33.35Z"/></g><path class="cls-2" d="M130.8,32.24c-.52-.55-.49-1,.06-1a2.21,2.21,0,0,1,1.5.62c.27.33.14,1.18-.3,1.88l-.08.12c-.43.7-.66.85-.51.33A2.35,2.35,0,0,0,130.8,32.24Z"/><path class="cls-2" d="M80.54,7.25c.06-.43.76-.61,1.56-.41h.21c.79.2.79.51,0,.7l-.42.1C81.08,7.87,80.48,7.68,80.54,7.25Z"/><path class="cls-2" d="M44.6,13.3c-.15.28-.93.35-1.73.15l-.31-.07c-.8-.2-.78-.39,0-.44h.79C44.21,12.84,44.75,13,44.6,13.3Z"/><path class="cls-2" d="M15.67,25.58c.12-.37-.44-.54-1.25-.38l-1.06.2c-.81.16-.8.39,0,.52L14,26C14.78,26.14,15.54,26,15.67,25.58Z"/><path class="cls-12" d="M17.89,37.3a2.51,2.51,0,0,1,0-1.94l.26-.9c.23-.79.39-.77.35,0l-.1,1.84C18.36,37.13,18.13,37.57,17.89,37.3Z"/><path class="cls-12" d="M45.66,41c-.25-.15-.25-.83,0-1.5s.44-.54.44.28h0C46.1,40.57,45.9,41.12,45.66,41Z"/><path class="cls-12" d="M70.71,24.25c0-.49.19-.27.49.5l.13.32c.3.77.29,1.1,0,.73A3.14,3.14,0,0,1,70.71,24.25Z"/><path class="cls-12" d="M209.89,37.52c.28-.21.32-1,.09-1.83l-.29-1c-.22-.79-.39-.76-.37.06v1.67C209.38,37.24,209.62,37.73,209.89,37.52Z"/><path class="cls-12" d="M246.55,37.3c.4-.22.44-1,.09-1.75l-1.41-3.06c-.34-.75-.5-.7-.35.11l.67,3.62C245.7,37,246.15,37.51,246.55,37.3Z"/><path class="cls-12" d="M248.1,23.69c-.15-.31-.57,0-.93.79l-1.46,3c-.36.74-.26.8.22.13l1.57-2.14C248,24.79,248.26,24,248.1,23.69Z"/><path class="cls-2" d="M224.28,8.47l.06-1.72c0-.83.22-.85.42,0l.52,2"/><path class="cls-14" d="M12.61,38.08c-.7-.22-.65-.34.11-.28s1.89.18,2.5.28.56.21-.11.27A8.1,8.1,0,0,1,12.61,38.08Z"/><path class="cls-14" d="M47.82,34.19c-.58-.58-.66-.51-.18.16l.48.67a8.16,8.16,0,0,0,1.65,1.72c.43.28.4,0-.06-.5S48.4,34.77,47.82,34.19Z"/><path class="cls-14" d="M62.1,32.58c-.19,0-.09.52.22,1.16s.46.64.33,0S62.28,32.58,62.1,32.58Z"/><path class="cls-14" d="M82.54,39.69c-.61-.06-.45-.24.36-.38l.72-.13c.81-.15,1.15-.07.75.17A3.41,3.41,0,0,1,82.54,39.69Z"/><path class="cls-14" d="M96.81,33.74c-.27-.39-.37-.14-.22.56a10.75,10.75,0,0,0,.89,2.39c.33.61.45.45.27-.35l-.1-.42A7.82,7.82,0,0,0,96.81,33.74Z"/><path class="cls-14" d="M144,35c-.09-.46-.32-.39-.5.16a9.17,9.17,0,0,0-.33,2.33c0,.74.21.7.47-.08l.05-.16A5.74,5.74,0,0,0,144,35Z"/><path class="cls-14" d="M128.29,31.91c-.16-.47-.51-.39-.79.17a1.32,1.32,0,0,0,.8,1.66c.71.35,1.07.27.79-.18A9.3,9.3,0,0,1,128.29,31.91Z"/><path class="cls-14" d="M154.69,39.91c-.71-.18-.61-.33.21-.33h.1a10.48,10.48,0,0,1,2.78.44c.7.24.6.4-.22.34h-.12A18.13,18.13,0,0,1,154.69,39.91Z"/><path class="cls-14" d="M172.51,33.74c-.06-.27-.28,0-.5.56s-.16.8.11.5A1.43,1.43,0,0,0,172.51,33.74Z"/><path class="cls-14" d="M189.66,33.14c-.06-.28-.28,0-.5.55s-.16.81.12.5A1.36,1.36,0,0,0,189.66,33.14Z"/><path class="cls-14" d="M187,38.3c-.79-.16-.77-.35.05-.42l.46-.05a4.44,4.44,0,0,1,2.22.3c.39.25.27.45-.28.45A16.86,16.86,0,0,1,187,38.3Z"/><path class="cls-14" d="M212.12,38.24c-.71.06-.71-.06,0-.28a8.84,8.84,0,0,1,2.76-.26l.91.08c.82.07.82.17,0,.21l-.9.06C214.07,38.09,212.82,38.18,212.12,38.24Z"/><path class="cls-12" d="M228.39,20.3a3.36,3.36,0,0,0-1.22,1.61c-.31.74-.15.8.35.14l.63-.83C228.65,20.56,228.75,20.15,228.39,20.3Z"/><path class="cls-2" d="M256,8.14c-.33,0-.67-.67-.75-1.49l-.05-.47c-.08-.82.13-.87.47-.12l.33.71C256.33,7.52,256.33,8.14,256,8.14Z"/><path class="cls-2" d="M151,11.3c0-.39.62-.7,1.44-.67h.34c.82,0,.87.31.11.63l-.45.18C151.7,11.77,151.05,11.7,151,11.3Z"/><path class="cls-2" d="M112,12.75c-.3-.15-.47.39-.36,1.21l.06.47c.11.82.34.83.53,0S112.28,12.9,112,12.75Z"/><path class="cls-2" d="M77,23.58c-.09-.31.5-.56,1.33-.56h2.89c.83,0,.84.14,0,.3l-2.62.52C77.87,24,77.13,23.88,77,23.58Z"/><path class="cls-2" d="M15,29.69c0-.23-.59-.42-1.42-.42H13c-.82,0-.84.16,0,.36l.51.12C14.29,30,15,29.92,15,29.69Z"/><path class="cls-15" d="M4.05,32.23c-.82,0-1.37.14-1.21.29a4,4,0,0,0,1.77.28h5.67a3.42,3.42,0,0,0,1.78-.33c.15-.19-.4-.33-1.22-.32Z"/><path class="cls-15" d="M30.38,32.23c-.82,0-1.37.14-1.22.29a4,4,0,0,0,1.78.28h5.67a3.38,3.38,0,0,0,1.77-.33c.16-.19-.39-.33-1.22-.32Z"/><path class="cls-15" d="M45.18,32.11c-.82,0-1.45.18-1.4.33s.76.28,1.57.28,1.52-.15,1.57-.34-.57-.31-1.4-.28Z"/><path class="cls-15" d="M18.77,19.2c-.82,0-1.45.17-1.4.32s.76.28,1.57.28,1.52-.15,1.57-.33-.57-.31-1.4-.28Z"/><path class="cls-15" d="M29.69,19.2c-.83,0-1.46.17-1.4.32s.75.28,1.57.28,1.52-.15,1.57-.33-.58-.31-1.4-.28Z"/><path class="cls-15" d="M7.86,20.94c-.82,0-1.46.18-1.41.33s.68.28,1.41.28,1.37-.15,1.42-.33-.59-.31-1.41-.28Z"/><path class="cls-15" d="M20.94,25.38c-.82,0-1.42.16-1.32.31a3.3,3.3,0,0,0,1.67.28h2.47c.82,0,1.58-.15,1.67-.34s-.5-.32-1.32-.3Z"/><path class="cls-15" d="M14.94,6.39c-.82,0-1.42.15-1.32.3A3.22,3.22,0,0,0,15.29,7h2.47a2.77,2.77,0,0,0,1.67-.33c.1-.18-.49-.32-1.32-.31Z"/><path class="cls-15" d="M60.34,32.11c-.82,0-1.45.18-1.4.33s.76.28,1.58.28,1.51-.15,1.57-.34-.58-.31-1.41-.28Z"/><path class="cls-15" d="M86.25,32.1c-.82,0-1.45.19-1.41.34s.69.28,1.42.28,1.37-.15,1.41-.34-.58-.31-1.41-.28Z"/><path class="cls-15" d="M65.18,32.13c-.83,0-1.43.16-1.35.31a3.16,3.16,0,0,0,1.66.28h1.8c.83,0,1.57-.15,1.65-.34s-.52-.32-1.34-.3Z"/><path class="cls-15" d="M78.92,32.13c-.82,0-1.42.16-1.32.31a3.16,3.16,0,0,0,1.66.28h2.33c.82,0,1.57-.15,1.66-.34s-.5-.32-1.32-.3Z"/><path class="cls-15" d="M94.09,32.12c-.83,0-1.44.17-1.37.32a2.91,2.91,0,0,0,1.62.28h.92c.82,0,1.55-.15,1.62-.34s-.55-.31-1.37-.29Z"/><path class="cls-15" d="M124.16,32.12c-.82,0-1.44.17-1.37.32a3,3,0,0,0,1.62.28h.92c.83,0,1.56-.15,1.63-.34s-.55-.31-1.37-.29Z"/><path class="cls-15" d="M145.57,32.12c-.82,0-1.44.17-1.38.32a2.86,2.86,0,0,0,1.6.28h.48c.83,0,1.55-.15,1.61-.34s-.56-.31-1.38-.29Z"/><path class="cls-15" d="M156.24,32.14c-.83,0-1.39.15-1.26.3a3.71,3.71,0,0,0,1.74.28h4.51a3.08,3.08,0,0,0,1.74-.34c.13-.18-.43-.32-1.26-.31Z"/><path class="cls-15" d="M169.4,32.11c-.82,0-1.45.18-1.4.33a2.86,2.86,0,0,0,1.6.28h.08c.83,0,1.54-.15,1.6-.34s-.58-.31-1.4-.28Z"/><path class="cls-15" d="M174.15,32.13c-.82,0-1.43.16-1.34.31a3.11,3.11,0,0,0,1.65.28h1.86c.82,0,1.56-.15,1.65-.34s-.52-.32-1.34-.3Z"/><path class="cls-15" d="M184.65,32.12c-.83,0-1.44.17-1.37.32a3.05,3.05,0,0,0,1.63.28H186c.82,0,1.55-.15,1.63-.34s-.54-.32-1.37-.3Z"/><path class="cls-15" d="M190.89,32.12c-.82,0-1.44.17-1.38.32a2.86,2.86,0,0,0,1.6.28h.38c.82,0,1.54-.15,1.6-.34s-.56-.31-1.38-.29Z"/><path class="cls-15" d="M199.73,32.14c-.83,0-1.37.15-1.2.3a4.21,4.21,0,0,0,1.79.28h6.29a3.44,3.44,0,0,0,1.79-.34c.17-.18-.37-.32-1.2-.32Z"/><path class="cls-15" d="M214.72,32.14c-.82,0-1.36.15-1.2.3a4.25,4.25,0,0,0,1.8.28h6.28a3.5,3.5,0,0,0,1.8-.34c.16-.18-.38-.32-1.2-.32Z"/><path class="cls-15" d="M252.63,32.14c-.82,0-1.36.15-1.2.3a4.21,4.21,0,0,0,1.79.28h6.29a3.44,3.44,0,0,0,1.79-.34c.17-.18-.37-.32-1.19-.32Z"/><path class="cls-15" d="M238.71,6.89c-.82,0-1.42.15-1.32.3a3.16,3.16,0,0,0,1.66.28h2.22a2.77,2.77,0,0,0,1.67-.33c.09-.18-.51-.32-1.33-.31Z"/><path class="cls-15" d="M226.88,6.89c-.82,0-1.41.15-1.3.3a3.27,3.27,0,0,0,1.69.28h3A3,3,0,0,0,232,7.14c.1-.18-.48-.32-1.31-.31Z"/><path class="cls-15" d="M220.89,6.88c-.83,0-1.44.16-1.37.31a3.05,3.05,0,0,0,1.63.28h1.2c.82,0,1.55-.15,1.63-.33s-.54-.32-1.36-.3Z"/><path class="cls-15" d="M222.89,19.14c-.83,0-1.42.15-1.33.3a3.3,3.3,0,0,0,1.67.28h2.37a2.77,2.77,0,0,0,1.67-.33c.1-.19-.5-.33-1.32-.31Z"/><path class="cls-15" d="M186.31,6.05c-.82,0-1.43.16-1.36.31a3.05,3.05,0,0,0,1.63.28h1.19c.82,0,1.56-.15,1.63-.33S188.86,6,188,6Z"/><path class="cls-15" d="M194.81,6.05c-.82,0-1.44.16-1.36.31a3.05,3.05,0,0,0,1.63.28h1.19c.82,0,1.56-.15,1.63-.33s-.54-.32-1.36-.3Z"/><path class="cls-15" d="M189.3,11.44c-.63,0-1.12.18-1.09.34s.53.27,1.09.27,1-.15,1.09-.33S189.94,11.41,189.3,11.44Z"/><path class="cls-15" d="M192.34,9.69c-.79,0-1.4.18-1.36.34s.66.28,1.36.28,1.32-.15,1.36-.34S193.14,9.66,192.34,9.69Z"/><path class="cls-15" d="M154.52,10c-.79,0-1.41.18-1.36.33s.65.28,1.36.28,1.32-.15,1.36-.33S155.32,10,154.52,10Z"/><path class="cls-15" d="M164.07,18.87c-.83,0-1.45.17-1.4.32a2.84,2.84,0,0,0,1.6.28h.11c.82,0,1.54-.15,1.59-.34s-.57-.31-1.4-.28Z"/><path class="cls-15" d="M157.4,22.05c-.82,0-1.42.15-1.34.31a3.24,3.24,0,0,0,1.65.27h1.81c.82,0,1.56-.15,1.65-.33s-.52-.32-1.34-.3Z"/><path class="cls-15" d="M251.71,22.72c-.82,0-1.43.15-1.34.3a3,3,0,0,0,1.65.28h1.8c.83,0,1.57-.15,1.66-.33s-.52-.32-1.35-.3Z"/><path class="cls-15" d="M94.84,25.2c-.83,0-1.45.17-1.38.32a2.94,2.94,0,0,0,1.61.28h.62c.83,0,1.55-.15,1.62-.33s-.56-.32-1.38-.3Z"/><path class="cls-15" d="M81.51,22.54c-.83,0-1.45.16-1.38.32s.79.27,1.61.27h.62c.83,0,1.55-.15,1.62-.33s-.56-.31-1.38-.29Z"/><path class="cls-15" d="M62.51,22.29c-.82,0-1.44.17-1.38.32a3,3,0,0,0,1.61.28h.63c.82,0,1.55-.15,1.61-.34s-.56-.31-1.38-.29Z"/><path class="cls-15" d="M33.77,12.13c-.82,0-1.42.15-1.34.3a3.16,3.16,0,0,0,1.66.28H36c.82,0,1.57-.14,1.66-.33s-.52-.32-1.34-.3Z"/><path class="cls-15" d="M87.71,7.3c-.82-.08-1.45,0-1.41.13a3.19,3.19,0,0,0,1.56.5l.62.08c.82.11,1.55.06,1.64-.11s-.51-.39-1.32-.48Z"/><path class="cls-15" d="M169.48,24.12c-.82,0-1.44.17-1.38.32a3,3,0,0,0,1.62.28h.62c.82,0,1.55-.15,1.61-.34s-.55-.31-1.38-.29Z"/><path class="cls-15" d="M193.48,21.79c-.83,0-1.45.16-1.38.32s.79.27,1.61.27h.62c.83,0,1.55-.15,1.62-.33s-.56-.31-1.38-.29Z"/><path class="cls-15" d="M135.82,6.65c-.82,0-1.33.14-1.13.3a4.73,4.73,0,0,0,1.86.27h8.3a4,4,0,0,0,1.86-.33c.2-.18-.31-.33-1.13-.32Z"/><path class="cls-15" d="M107.25,6.74c-.82,0-1.33.14-1.12.29A4.94,4.94,0,0,0,108,7.3h8.67a4,4,0,0,0,1.87-.3c.21-.18-.3-.32-1.12-.32Z"/><path class="cls-15" d="M105.75,18.89c-.82,0-1.4.15-1.29.3a3.42,3.42,0,0,0,1.7.28h3.35a2.87,2.87,0,0,0,1.7-.34c.12-.18-.47-.32-1.29-.3Z"/><path class="cls-15" d="M113.41,18.89c-.82,0-1.41.15-1.3.3a3.38,3.38,0,0,0,1.69.28h3c.83,0,1.59-.15,1.69-.34s-.48-.32-1.3-.3Z"/><path class="cls-15" d="M129.83,30.53c-.83,0-1.46.17-1.41.32s.74.28,1.53.28,1.49-.15,1.54-.33-.58-.31-1.41-.28Z"/><path class="cls-15" d="M127.57,11c-.82-.1-1.44,0-1.39.12a3.07,3.07,0,0,0,1.58.5l1.3.18c.81.11,1.56.06,1.66-.11s-.48-.39-1.3-.48Z"/><path class="cls-15" d="M199.22,24.17c-.82-.09-1.44,0-1.39.12a3.07,3.07,0,0,0,1.58.5l1.29.18c.82.11,1.57.07,1.67-.11s-.49-.38-1.31-.48Z"/><path class="cls-15" d="M196.55,11.44c-.59,0-1,.18-1,.34s.49.27,1,.27,1-.15,1-.33S197.14,11.41,196.55,11.44Z"/><path class="cls-15" d="M230.47,19.14c-.82,0-1.41.15-1.31.3a3.49,3.49,0,0,0,1.69.28h3a2.93,2.93,0,0,0,1.69-.33c.11-.19-.48-.33-1.31-.31Z"/><path class="cls-15" d="M258,6.88c-.82,0-1.44.16-1.36.31a3.05,3.05,0,0,0,1.63.28h1.29c.83,0,1.56-.15,1.64-.33s-.54-.32-1.36-.3Z"/><path class="cls-15" d="M134.66,32.14c-.82,0-1.38.15-1.24.3a3.93,3.93,0,0,0,1.76.28h5.21a3.24,3.24,0,0,0,1.76-.34c.14-.18-.41-.32-1.24-.31Z"/><path class="cls-15" d="M99.67,32.15c-.82,0-1.34.14-1.15.29a4.44,4.44,0,0,0,1.84.28h7.79a3.65,3.65,0,0,0,1.84-.34c.19-.18-.33-.33-1.15-.32Z"/><path class="cls-15" d="M112.67,32.13c-.83,0-1.42.16-1.31.31a3.36,3.36,0,0,0,1.68.28h3c.82,0,1.58-.15,1.68-.34s-.48-.32-1.3-.31Z"/><path class="cls-15" d="M50.82,32.21c-.82,0-1.44.16-1.36.31a3.05,3.05,0,0,0,1.63.28h1.14c.82,0,1.55-.15,1.63-.33s-.54-.32-1.37-.3Z"/><path class="cls-15" d="M174.84,12.76c-.82,0-1.46.15-1.41.27a3.15,3.15,0,0,0,1.52.22c.78,0,1.46-.12,1.51-.27s-.58-.24-1.41-.22Z"/><path class="cls-15" d="M163.23,6.66c-.82,0-1.44.16-1.37.32s.79.27,1.61.27h.65c.83,0,1.55-.15,1.62-.33s-.56-.32-1.38-.29Z"/></svg>